<svg xmlns="http://www.w3.org/2000/svg" viewBox="0 0 352 101">
  <g fill="none" fill-rule="nonzero">
    <circle cx="50.3" cy="50.3" r="50.3" fill="#D9D9D9"/>
    <path fill="#35A8E0" d="M23.8 41.6c0 1.3 1 2.3 2.3 2.3h74.5a2.3 2.3 0 100-4.6H26.2a2.3 2.3 0 00-2.4 2.3zm0 11.5c0 1.3 1 2.3 2.3 2.3h74.5a2.3 2.3 0 100-4.6H26.2a2.3 2.3 0 00-2.4 2.3zm52.8-23c0 1.3 1 2.3 2.3 2.3h21.8a2.3 2.3 0 100-4.6H78.9c-1.3 0-2.3 1-2.3 2.3zm24.1-13.8H78.9a2.3 2.3 0 000 4.6h21.8a2.3 2.3 0 100-4.6zm2.3-9.2c0-1.3-1-2.3-2.3-2.3H78.9a2.3 2.3 0 000 4.6h21.8c1.3 0 2.3-1 2.3-2.3zM76.6 87.6c0 1.3 1 2.3 2.3 2.3h21.8a2.3 2.3 0 100-4.6H78.9c-1.3 0-2.3 1-2.3 2.3zm0-11.5c0 1.3 1 2.3 2.3 2.3h21.8a2.3 2.3 0 100-4.6H78.9c-1.3 0-2.3 1-2.3 2.3zm0-11.5c0 1.3 1 2.3 2.3 2.3h21.8a2.3 2.3 0 100-4.6H78.9c-1.3 0-2.3 1-2.3 2.3zM50.3 30.1c0-1.3-1-2.3-2.3-2.3H26.2a2.3 2.3 0 000 4.6h21.7a2.3 2.3 0 002.4-2.3zm0-11.5c0-1.3-1-2.3-2.3-2.3H26.2a2.3 2.3 0 000 4.6h21.7a2.3 2.3 0 002.4-2.3zm-2.4-9.2a2.3 2.3 0 000-4.6H26.2a2.3 2.3 0 000 4.6h21.7zM23.8 87.6c0 1.3 1 2.3 2.3 2.3h21.8a2.3 2.3 0 000-4.6H26.2a2.3 2.3 0 00-2.4 2.3zm0-11.5c0 1.3 1 2.3 2.3 2.3h21.8a2.3 2.3 0 000-4.6H26.2a2.3 2.3 0 00-2.4 2.3zm2.4-9.2h21.7a2.3 2.3 0 000-4.6H26.2a2.3 2.3 0 000 4.6z"/>
    <path fill="#29235C" d="M35.3 50.9c0 1.3 1 2.3 2.3 2.3h74.5a2.3 2.3 0 100-4.6H37.6c-1.3 0-2.3 1-2.3 2.3zm0 11.5c0 1.3 1 2.3 2.3 2.3h74.5a2.3 2.3 0 100-4.6H37.6c-1.3 0-2.3 1-2.3 2.3zm52.7-23c0 1.3 1 2.3 2.3 2.3h21.8a2.3 2.3 0 100-4.6H90.3c-1.3 0-2.3 1-2.3 2.3zm24.1-13.9H90.3a2.3 2.3 0 000 4.6h21.8a2.3 2.3 0 100-4.6zm2.3-9.1c0-1.3-1-2.3-2.3-2.3H90.3a2.3 2.3 0 000 4.6h21.8c1.3 0 2.3-1 2.3-2.3zM88 96.9c0 1.3 1 2.3 2.3 2.3h21.8a2.3 2.3 0 100-4.6H90.3c-1.3 0-2.3 1-2.3 2.3zm0-11.5c0 1.3 1 2.3 2.3 2.3h21.8a2.3 2.3 0 100-4.6H90.3c-1.3 0-2.3 1-2.3 2.3zm0-11.5c0 1.3 1 2.3 2.3 2.3h21.8a2.3 2.3 0 100-4.6H90.3c-1.3 0-2.3 1-2.3 2.3zM61.7 39.4a2.3 2.3 0 00-2.3-2.4H37.6a2.3 2.3 0 000 4.6h21.8c1.2 0 2.2-1 2.3-2.2zm0-11.5c0-1.3-1-2.3-2.3-2.3H37.6a2.3 2.3 0 000 4.6h21.8c1.3 0 2.3-1 2.3-2.3zm-2.3-9.2a2.3 2.3 0 000-4.6H37.6a2.3 2.3 0 000 4.6h21.8zM35.3 96.9c0 1.3 1 2.3 2.3 2.3h21.8a2.3 2.3 0 000-4.6H37.6c-1.3 0-2.3 1-2.3 2.3zm0-11.5c0 1.3 1 2.3 2.3 2.3h21.8a2.3 2.3 0 000-4.6H37.6c-1.3 0-2.3 1-2.3 2.3zm2.3-9.2h21.8a2.3 2.3 0 000-4.6H37.6a2.3 2.3 0 000 4.6zm100.3-13.1V28.2c0-.6.3-1 .8-1.3 1.3-.6 2.7-.6 4 0 .5.2.8.7.8 1.3v14.6h13.1V28.2c0-.6.3-1 .8-1.3 1.3-.6 2.7-.6 4 0 .5.2.8.7.8 1.3v34.9c0 .5-.3 1-.8 1.3-1.2.7-2.7.7-3.9 0-.5-.3-.8-.8-.8-1.3V47.2h-13.3v15.9c0 .5-.3 1-.8 1.3-1.2.7-2.7.7-3.9 0-.5-.3-.8-.8-.8-1.3zM173 30.8c0-.8.3-1.6.9-2.1 1.3-1 3.2-1 4.5 0a2.7 2.7 0 010 4.1 3.4 3.4 0 01-4.5 0c-.6-.5-.9-1.2-.9-2zm.5 32.3V41.8c0-.5.3-1 .8-1.3.6-.4 1.3-.5 2-.5s1.4.1 2 .5c.5.3.8.8.8 1.3v21.3c0 .5-.3 1-.8 1.3-.6.4-1.3.6-2 .6s-1.4-.2-2-.6c-.5-.3-.8-.8-.8-1.3zm16.2-9.6V38.2c0-4 1-7 3.2-8.9 2.4-2 5.3-3 8.4-2.8 3.1-.1 6.2.8 8.7 2.7a8.6 8.6 0 013.3 7.1c0 .8-.2 1.5-.7 2.1-.6.4-1.4.7-2.1.6-1.8 0-2.7-.6-2.8-1.8-.4-3.7-2.5-5.6-6.3-5.6s-5.9 2.3-6.2 6.8v15.1c0 4.5 2 6.8 6.2 6.8 1.7.1 3.4-.5 4.6-1.7a7.2 7.2 0 001.6-5.1v-4.4h-5.3c-.5 0-1-.3-1.3-.7-.3-.5-.5-1-.5-1.6 0-.5.2-1 .5-1.5.3-.4.8-.7 1.3-.7h9.1c.5 0 1 .2 1.3.6.3.4.5.8.5 1.3v6.9c0 4-1 7-3.2 8.9a14.4 14.4 0 01-17.2 0c-2-1.8-3.1-4.7-3.1-8.8zm34.7 9.6V28.2c0-.6.3-1 .8-1.3 1.3-.6 2.7-.6 4 0 .5.2.8.7.8 1.3v14.6h13.1V28.2c0-.6.3-1 .8-1.3 1.3-.6 2.7-.6 4 0 .5.2.8.7.8 1.3v34.9c0 .5-.3 1-.8 1.3-1.2.7-2.7.7-3.9 0-.5-.3-.8-.8-.8-1.3V47.2H230v15.9c0 .5-.3 1-.8 1.3-1.2.7-2.7.7-3.9 0-.5-.2-.9-.7-.9-1.3zm36.3.9V41a.8.8 0 01.9-.9c.6 0 .9.3.9.9v2.8a7.6 7.6 0 017.1-4c1.7 0 3.4.4 4.8 1.4 1.4 1 2.4 2.3 3.1 3.8.8-1.6 2-3 3.5-3.9a8.5 8.5 0 0110.6 1.3 9.4 9.4 0 012.6 6.9V64c0 .5-.4.9-.9.9a.8.8 0 01-.6-.3 1 1 0 01-.3-.7V49.2c.1-2-.7-4.1-2.1-5.6-1.3-1.3-3-2-4.8-2a7.2 7.2 0 00-7.1 7.3v15.2c0 .6-.3.9-.9.9a.8.8 0 01-.9-.9V49c0-2-.7-3.8-2-5.2a6.3 6.3 0 00-4.8-2.1 7.4 7.4 0 00-7.2 7.6V64c0 .5-.4.9-.9.9a.8.8 0 01-.6-.3 1 1 0 01-.4-.6zm44.5-8.3v-6.6a9.5 9.5 0 019.4-9.3 9.4 9.4 0 019 11.7c-.2.5-.6 1-1.1 1.2l-1.3.4H307v2.5a7 7 0 002.5 5.6c1.8 1.5 4 2.2 6.4 2.1a8.5 8.5 0 005.3-1.7 2 2 0 011-.5c.3 0 .5.1.7.3l.3.6c0 .3-.3.7-.8 1.2-.8.6-1.7 1-2.6 1.3-1.2.4-2.5.6-3.8.6-2.8.1-5.6-.9-7.7-2.7-2-1.7-3-4.1-3.1-6.7zm1.8-4.3h11.9c.9 0 1.8 0 2.6-.4.4-.3.6-.8.6-1.6 0-2-.7-4-2.1-5.4a6.8 6.8 0 00-5.4-2.4c-2 0-4 .7-5.4 2.2A7.3 7.3 0 00307 49v2.4zm26.6 4.3v-6.5c0-5.2 4.3-9.5 9.5-9.5 3-.2 5.7 1.4 7.1 4V25.4c0-.6.3-.9.9-.9a.8.8 0 01.9.9V64c0 .3-.1.5-.3.7-.1.2-.4.3-.6.3a1 1 0 01-.9-.9v-2.8a7.3 7.3 0 01-2.9 2.8 8.3 8.3 0 01-4.3 1.2c-2.5 0-5-1-6.6-2.9a9.3 9.3 0 01-2.8-6.7zm1.8 0c0 2 .8 4 2.2 5.4a6.9 6.9 0 005.2 2.4c2 0 3.7-.8 5.1-2.1 1.5-1.4 2.2-2.6 2.2-3.7v-8.5c0-2-.7-4-2.2-5.5a7.1 7.1 0 00-10.3.2 7.5 7.5 0 00-2.2 5.3v6.5zM157.6 95.3H156V79.7l-6.8 15.6h-1.5l-6.5-15.6v15.6h-1.6V79.1c0-.3 0-.5.3-.7l.5-.2h1.5l.4.2.3.3.2.5 5.7 13.7h.1l5.9-13.6.3-.5.3-.4.4-.2h1.9l.2.3.1.4-.1 16.4zm14.6-6.7c0 .3 0 .5-.3.7l-.5.2h-8.2c0 .7 0 1.3.2 2 .1.6.4 1.1.7 1.6.3.4.8.8 1.3 1 .6.2 1.3.3 2 .3h1.6l1.2-.3.8-.3h.7v.8h-.2l-.4.2-.9.3-1.3.3h-1.6c-.9 0-1.7-.1-2.5-.4a4.7 4.7 0 01-2.9-3.2 9.4 9.4 0 010-5.5c.2-.8.6-1.5 1.1-2.1.5-.6 1.1-1 1.8-1.3.7-.3 1.5-.4 2.3-.4.8 0 1.6.2 2.3.5.6.3 1.2.7 1.6 1.2.4.5.7 1.1.9 1.8l.3 2.1v.5zm-1.6-.5c0-1-.2-2.1-.9-3A3.3 3.3 0 00167 84c-1 0-2.1.4-2.8 1.2a4 4 0 00-.7 1.3l-.3 1.5 7.4.1zm15 7.2v.2h-1.4v-2c-.6.6-1.3 1.2-2 1.6-.7.4-1.4.6-2.2.6-.8 0-1.5-.1-2.2-.5-.6-.3-1.1-.8-1.5-1.4a6 6 0 01-.8-2 11 11 0 010-5.3c.2-.8.5-1.5 1-2.1.4-.6 1-1 1.6-1.3a5 5 0 012.2-.5c.7 0 1.4.2 2 .5a7 7 0 011.8 1.4v-7.1h1.6l-.1 17.9zm-1.6-8.8a9.8 9.8 0 00-1.9-1.9 3.4 3.4 0 00-3.5-.2c-.5.3-.8.7-1.1 1.2-.3.5-.5 1-.6 1.6a9.1 9.1 0 00.5 5.4c.2.5.6.9 1 1.2.5.3 1 .4 1.6.4h.9l.9-.4 1-.8 1.1-1.2.1-5.3zm7.9-7.4c0 .3 0 .6-.2.9-.2.2-.5.2-.8.2-.3 0-.6 0-.8-.2-.3-.5-.3-1.2 0-1.7.2-.2.5-.2.8-.2.3 0 .6 0 .8.2.2.2.2.5.2.8zm-.2 16.1H190v-12h1.6l.1 12zm12.8-1.7v.7l-.2.2-.6.4-.9.5-1.1.3h-1.2c-.8 0-1.5-.1-2.2-.4-.6-.3-1.2-.7-1.6-1.2-.5-.6-.8-1.3-1-2l-.3-2.8c0-1 .1-2 .4-3 .2-.8.7-1.5 1.2-2.1.5-.5 1-1 1.7-1.2.7-.3 1.4-.4 2.1-.4h1.1l1 .3.8.4.5.4.2.3v.7l-.1.5-.2.2-.5-.2-.7-.5-1-.5-1.4-.2c-1 0-2 .4-2.7 1.3-.7 1.2-1 2.5-.9 3.9 0 .7.1 1.5.3 2.2.1.6.4 1.1.7 1.6.3.4.7.7 1.2.9l1.5.3 1.4-.3 1.1-.6.8-.6.4-.3h.2v1.2zm11.4 1.8v.2h-1.2v-1.6c-.5.6-1.1 1-1.8 1.4-.6.3-1.3.5-2 .5l-1.7-.2c-.5-.1-1-.4-1.3-.7l-.8-1.1-.3-1.5c0-1.2.6-2.4 1.6-3 .6-.3 1.2-.6 1.8-.7l2.4-.2h1.9v-1c0-.5 0-1-.2-1.4 0-.4-.3-.7-.5-1-.2-.3-.6-.5-.9-.6l-1.4-.2-1.4.2-1.1.4-.8.4-.4.2h-.3V85v-.3-.4l.2-.3.6-.4 1-.4 1.2-.3h1.3c.7 0 1.4 0 2.1.3a3.4 3.4 0 012.2 2.3c.2.6.2 1.3.2 1.9l-.4 7.9zm-1.6-5.7h-2.2l-1.7.2-1.2.5-.7.8c-.2.3-.2.7-.2 1.1 0 .6.2 1.3.7 1.7.5.4 1.2.7 1.9.6.6 0 1.3-.2 1.8-.5l1.7-1.5-.1-2.9zm7.5 5.7h-1.6v-18h1.6v18zm12.6 0h-1.6V78.5h1.6v16.8zm14.5 0h-1.6v-7.2c0-.6 0-1.2-.2-1.8 0-.4-.3-.8-.5-1.2-.2-.3-.5-.6-.9-.8-.4-.2-.8-.3-1.3-.3-.7 0-1.3.3-1.8.7a10 10 0 00-1.9 1.9v8.7h-1.6V83.2h1.5v1.7c.6-.7 1.2-1.3 2-1.7.6-.3 1.3-.5 2-.5s1.4.1 2 .4c.5.3 1 .6 1.3 1.1.3.5.6 1 .7 1.6.2.7.2 1.5.2 2.2l.1 7.3zM259.4 78v.5h-2l-.9.2c-.3.1-.5.3-.6.6-.2.3-.3.7-.3 1l-.1 1.5v1.4h3.2v.5l-.1.5-.3.2h-3v11h-1.6v-11h-1.8l-.3-.2a1 1 0 01-.1-.5v-.5h2.1v-1.7c0-.7 0-1.5.2-2.2.1-.5.4-1 .7-1.5.3-.4.7-.7 1.2-.8l1.6-.3h.9l.6.2.3.2v.4l.3.5zm11.9 11.1a9 9 0 01-.4 2.7c-.2.8-.6 1.5-1.1 2.1-.5.6-1.1 1-1.8 1.4-.8.4-1.7.5-2.6.5-.9 0-1.7-.1-2.5-.4-.7-.3-1.3-.7-1.8-1.3-.5-.6-.9-1.3-1.1-2a9.4 9.4 0 010-5.4c.2-.8.6-1.5 1.1-2.1a5 5 0 011.8-1.4c.8-.3 1.7-.5 2.6-.5.9 0 1.7.1 2.5.4.7.3 1.3.7 1.8 1.3.5.6.9 1.3 1.1 2 .3.9.4 1.8.4 2.7zm-1.7.1c0-.7 0-1.3-.2-2-.1-.6-.4-1.1-.7-1.6-.3-.5-.8-.9-1.3-1.1-.6-.3-1.3-.4-2-.4s-1.3.1-1.9.4c-.5.3-1 .6-1.3 1.1-.3.5-.6 1-.7 1.6a9.5 9.5 0 000 4c.1.6.4 1.1.7 1.6.3.5.8.9 1.3 1.1 1.2.5 2.6.5 3.8 0 .5-.3 1-.6 1.3-1.1.3-.5.6-1 .7-1.6.2-.6.4-1.3.4-2h-.1zm12-5.4v.5h-1.9l-.7.2-.7.5-.8.9-.9 1.4v8.2H275V83.2h1.5v1.9l1-1.2.8-.7.8-.4h2.6v.2l-.1.8zm19.9 11.5h-1.6v-7.5c0-.5 0-1-.2-1.6 0-.4-.3-.8-.5-1.2l-.8-.8-1.2-.3c-.6 0-1.2.3-1.7.7l-1.9 1.9v8.7H292v-7.4c0-.5 0-1-.2-1.6 0-.4-.3-.8-.5-1.2l-.8-.8-1.2-.3c-.6 0-1.2.3-1.7.7l-1.9 1.9v8.7h-1.6v-12h1.5v1.7a8 8 0 012-1.7c.6-.3 1.2-.5 1.9-.5l1.4.2 1 .5.8.8.5 1 1.2-1.2 1.1-.8 1-.4h.9c.7 0 1.3.1 1.9.4.5.3 1 .6 1.3 1.1.3.5.6 1 .7 1.6l.2 1.9v7.5zm12.8 0v.2H313v-1.6c-.5.6-1.1 1-1.8 1.4-.6.3-1.3.5-2 .5l-1.7-.2c-.5-.1-1-.4-1.3-.7l-.8-1.1-.3-1.5c0-1.2.6-2.4 1.6-3 .6-.3 1.2-.6 1.8-.7l2.4-.2h1.9v-1c0-.5 0-1-.2-1.4 0-.4-.3-.7-.5-1-.2-.3-.6-.5-.9-.6l-1.4-.2-1.4.2-1.1.4-.8.4-.4.2h-.3V85v-.3-.4l.2-.3.6-.4 1-.4 1.2-.3h1.3c.7 0 1.4 0 2.1.3a3.4 3.4 0 012.2 2.3c.2.6.2 1.3.2 1.9l-.3 7.9zm-1.6-5.7h-2.2l-1.7.2-1.2.5-.7.8c-.2.3-.2.7-.2 1.1 0 .6.2 1.3.7 1.7.5.4 1.2.7 1.9.6.6 0 1.3-.2 1.8-.5l1.7-1.5-.1-2.9zm15.6-6.7l.4.2.1.4v11.8h-1.6v-11h-6.7v7.3c0 .7.1 1.4.4 2.1.3.5.8.7 1.4.7h1.8v1.3l-.3.2h-1.5l-1.5-.2c-.4-.1-.7-.4-1-.7a3 3 0 01-.6-1.2L319 92v-7.7h-1.8l-.3-.2-.1-.5v-.5h2.2V80h1.6v3l7.7-.1zm.8-3.8c0 .3 0 .6-.2.9-.2.2-.5.2-.8.2-.3 0-.6 0-.8-.2-.3-.5-.3-1.2 0-1.7.2-.2.5-.2.8-.2.3 0 .6 0 .8.2.2.2.2.5.2.8zm12.6 14.4v.7l-.2.2-.6.4-.9.5-1.1.3h-1.2c-.8 0-1.5-.1-2.2-.4-.6-.3-1.2-.7-1.6-1.2-.5-.6-.8-1.3-1-2l-.3-2.8c0-1 .1-2 .4-3 .2-.8.7-1.5 1.2-2.1.5-.5 1-1 1.7-1.2.7-.3 1.4-.4 2.1-.4h1.1l1 .3.8.4.5.4.2.3v.7l-.1.5-.2.2-.5-.2-.7-.5-1-.5-1.4-.2c-1 0-2 .4-2.7 1.3-.7 1.2-1 2.5-.9 3.9 0 .7.1 1.5.3 2.2.1.6.4 1.1.7 1.6.3.4.7.7 1.2.9l1.5.3 1.4-.3 1.1-.6.8-.6.4-.3h.2v1.2zM352 92c0 .5 0 1.1-.3 1.6-.2.5-.5.9-.9 1.2-.4.3-.9.6-1.4.7l-1.8.3h-1.2l-1-.3-.8-.3-.5-.3-.2-.3-.1-.5v-.5h.3l.4.2.7.4 1 .4 1.3.2h1.1l.9-.4c.3-.2.5-.4.6-.7l.2-1-.3-.9-.7-.7-1-.5-1.1-.5-1.1-.5-1-.7a3 3 0 01-1-2.3c0-.4 0-.8.2-1.2a3.1 3.1 0 012-1.9l1.8-.3h.9l.8.2.6.3.4.2.2.2V84v.8h-.6l-.6-.3-.8-.3h-2.2l-.8.4-.5.6a2 2 0 00-.2.8c0 .4.1.7.3 1l.7.7 1 .5 1.1.5 1.1.5 1 .7.7.9c.4.3.6.7.8 1.2z"/>
  </g>
</svg>
