<svg xmlns="http://www.w3.org/2000/svg" viewBox="0 0 88 74">
  <g fill="none" fill-rule="evenodd">
    <path fill="#f7e4ce" d="M24.8 42.7h37.8v-23H24.8v23zm0-26h37.8V12H24.8v4.5zM64.1 9H23.3c-.8 0-1.5.7-1.5 1.5v33.6c0 .8.7 1.5 1.5 1.5h40.8c.8 0 1.5-.7 1.5-1.5V10.6c0-.8-.7-1.5-1.5-1.5z"/>
    <path fill="#f9f9f9" d="M27 13.6a.9.9 0 100 1.7.9.9 0 000-1.7M29.6 13.6a.9.9 0 100 1.7.9.9 0 000-1.7M32.2 15.3a.9.9 0 100-1.7.9.9 0 000 1.7M31 30.8l8.4 4.3V34l-7-3.5 7-3.6v-1.3l-8.3 4.3zM40.6 35.9h1.2l5-13.1h-1.2zM48 26.8l7.1 3.5L48 34V35l8.4-4.3v-1L48 25.5z"/>
    <path fill="#f9f9f9" d="M84.4 50H3V6a3 3 0 013-3h75.4a3 3 0 013 3v44zm0 3.7a3 3 0 01-3 3H6a3 3 0 01-3-3V53h81.4v.8zM57.1 70.1H30.3l5.4-10.4h16L57 70zM81.4 0H6a6 6 0 00-6 6v47.7a6 6 0 006 6h26.3l-5.8 11.2a1.5 1.5 0 001.3 2.2h31.8a1.5 1.5 0 001.3-2.2L55 59.7h26.3a6 6 0 006-6V6a6 6 0 00-6-6z"/>
  </g>
</svg>
