<svg xmlns="http://www.w3.org/2000/svg" viewBox="0 0 119 112">
    <g fill="none" fill-rule="evenodd">
        <path fill="#f7e4ce" d="M100.4 64.6l-.8 1.4-1.6 2.6-7.9 13.2-1.5 2.6L87 87l8.1 4.8 1.6-2.6-5.5-3.3 10.1-17L107 72l1.6-2.6z"/>
        <path fill="#f9f9f9" d="M108.5 69.4l-1.6 2.6L96.8 89l-1.6 2.6-1 1.7 8.6 5.3 1.6-2.6-6.1-3.7 12.2-20.5 6 3.7 1.6-2.6-8.6-5.2z"/>
        <path fill="#f7e4ce" d="M35.1 19.6H61V10h-3v6.4l-19.9.1v-6.4h-3z"/>
        <path fill="#f9f9f9" d="M60 0v7.1l-23.8.1v-7h-3v10H63V0zM70.9 76.7c2.2 1.3 3.3 4.7 2.2 6.7-1 1.5-4.7 4.4-7.8 4.4-.8 0-1.9.6-2.3 1.5-.4.6-.4 1.2 0 1.7.6 1 2.7 0 3-.2 2.3-1.3 6.2-2.7 11.9-4.1 4-1 4.5-2.6 4.8-3.8.2-.7.5-1.6 1.3-2.2 1.5-1 4 0 6.1 1.1l-1.5 2.6c-1.2-.6-2.3-1-2.9-1.1l-.1.4c-.6 2.2-1.7 4.5-7 5.9a51 51 0 00-11 3.8c-1.3.7-2.6 1-3.7 1a4 4 0 01-3.5-1.8c-1-1.4-1-3.1 0-4.7a6 6 0 014.9-3.1c2 0 4.8-2.2 5.2-3 .1-.3-.1-1.9-1.2-2.5L60 73.6l-.6.5c.6.3 1.1.8 1.6 1.5 1.8 2.8-.2 5.6-1.5 6.7l-20 14c-1.9 1.2-5 1-6.5.4l-1.8 1-1.8-2.4c3-2 4.2-1.6 4.6-1.4.7.3 3 .5 3.8 0l19.8-14c.3-.2 1.6-1.5.9-2.6-.5-.7-.9-.8-1.2-.9-.9-.1-2 .6-2.2.7l-7.4 5-1.7-2.5 11-7.7-3.2-2-1 .2-8.8 6.3-1.7-2.5 6.9-5 1.3-1a5.7 5.7 0 01-2-2.8 4 4 0 010-.8l-1.1.8-7 5.1-1.9-2.4 4.2-3 6.8-5c-1.1-1-1.7-2-2-2.9a165.1 165.1 0 00-4.4 3.2L40.5 62 33 67.1c-2 1.5-5.6 1.2-7-.7-1-1.4-2-6-.8-8.8.3-.8.1-2-.5-2.8-.4-.6-.9-.8-1.5-.7-1.3.2-1.1 2.5-1 3 .2 2.5-.2 6.6-1.1 12.4-.7 4 .5 5.1 1.5 6 .6.4 1.3 1 1.4 2 .3 1.8-1.5 3.6-3.5 5.1l-1.7-2.4c1-.8 1.9-1.7 2.2-2.2l-.4-.3c-1.6-1.4-3.4-3.4-2.5-8.7a51 51 0 001-11.6c-.1-1.5 0-2.8.5-3.8a4 4 0 013.2-2.5c1.7-.2 3.2.4 4.3 1.9a6 6 0 01.8 5.8c-.7 1.7.1 5.2.6 5.9.2.3 1.8.7 2.8 0l8.7-6-.1-2.4c-.6.3-1.3.4-2.2.4-3.3 0-4.5-3.3-4.6-5v-.2-24.3c0-2.2 2.1-4.6 3.4-5.5l.2-2h3c0 3.6-1 4.2-1.5 4.4-.6.4-2 2.2-2 3.2L36 51.4c0 .4.3 2.3 1.7 2.3.8 0 1.1-.2 1.3-.4.7-.7.8-2 .7-2.3l.3-9 3 .2v14.3l3.9-2.8-.1-11.3h3l.1 9.3c1.2-.6 2.6-.6 3.7-.4l-.1-9h3l.1 6.4c.2 0 .3-.2.4-.3a5 5 0 013.6-1v-8.7c0-2.6 2.3-5.2 4.6-5.3 1.8 0 6.2 1.8 7.7 4.4.5.7 1.6 1.2 2.6 1.2.7 0 1.2-.3 1.4-.8.6-1.2-1.4-2.4-1.8-2.6a52.5 52.5 0 01-9.6-8c-3-3-4.5-2.5-5.7-2.2-.7.2-1.6.4-2.5 0-1.6-.8-2.1-3.4-2.2-5.8h3c0 1.3.3 2.5.5 3l.4-.1c2.2-.6 4.8-.9 8.6 3 4 3.8 7 6.3 9 7.5 1.3.7 2.2 1.6 2.8 2.5a4 4 0 01.2 4 4.5 4.5 0 01-4 2.5 6 6 0 01-5.2-2.7c-1-1.6-4.3-3-5.1-2.9-.5 0-1.7 1-1.7 2.3v9.6l2.8 1.5c0-.6.3-1.3.8-2 1.7-2.8 5.1-2.2 6.7-1.5l.1.1L94.9 59c1.9 1.2 3 4.2 3 5.7l1.7 1.3-1.6 2.6c-3-2-3-3.2-3-3.6 0-.8-.8-3-1.7-3.5A3579 3579 0 0072.6 49c-.3-.1-2-.8-2.8.3-.4.7-.4 1.2-.3 1.4.2 1 1.3 1.6 1.6 1.8l7.5 4.8-1.6 2.5-13.3-8-1.8-1.1-1.2-.4c-.7 0-1.6 0-2.1.9-.5.8-.5 1.6.8 2.6L74.8 63l-1.5 2.6-16-9.2-3.1-1.7-.2-.1c-.1 0-2-.9-3 .2l-.2.3c-.6 1-.5 1.7 1.2 3l18.7 10.8-1.5 2.6-14.5-8.3a7 7 0 00-.4-.2c-.5-.2-1.2-.4-1.7-.3-.2.1-.6.2-1 .8-.2.4-.2.7-.1.9.2.7.8 1.2 1.2 1.4l18.2 11z"/>
        <path fill="#f7e4ce" d="M31.2 97.7l-1.8-2.4-8.9-12.7-1.7-2.4-1.7-2.3-7.6 5.4 1.7 2.5 5.2-3.7L28 98.3l-5.2 3.7 1.7 2.5 7.7-5.5z"/>
        <path fill="#f9f9f9" d="M11.2 85.8l-1.7-2.5-1.2-1.6L0 87.4 1.7 90l5.9-4 13.8 19.4-5.9 4 1.7 2.5 8.3-5.8-1-1.5-1.8-2.5z"/>
    </g>
</svg>
