<svg xmlns="http://www.w3.org/2000/svg" viewBox="0 0 113 112">
  <g fill="none" fill-rule="evenodd">
    <path fill="#c0e4f2" d="M0 9l3.2 3.2 3.5-3.6v96.6h96.7l-3.5 3.6 3.1 3.2 9-9-9-9L100 97l3.5 3.6H11.2v-92l3.6 3.5L18 9 9 0z"/>
    <path fill="#c0e4f2" d="M104.2 62.7h-.3a4.3 4.3 0 01-4-4.3 4.3 4.3 0 114.3 4.3m-22 29.8a4.3 4.3 0 110-8.6 4.3 4.3 0 010 8.6M57.5 50.1a4.3 4.3 0 01-8.2-1.6 4.3 4.3 0 118.2 1.6M24.8 76.3a4.3 4.3 0 110-8.6 4.3 4.3 0 010 8.6m79.4-26.7a8.8 8.8 0 00-6.8 14.3L85.4 80a8.8 8.8 0 00-6.4 0L60.5 54a8.8 8.8 0 10-14.8-2L29.9 64.9a8.8 8.8 0 102.8 3.5l15.8-12.8a8.7 8.7 0 008.3 1l18.6 26a8.8 8.8 0 1013.6.1l12-16.2a8.8 8.8 0 103.2-17"/>
    <path fill="#1b647e" d="M104.2 13h-.4a4.3 4.3 0 01-3.9-4.2 4.3 4.3 0 114.3 4.3M86.4 38A4.3 4.3 0 1178 38a4.3 4.3 0 018.5 0m-32.7-9a4.3 4.3 0 01-4.3-4.4 4.3 4.3 0 114.3 4.3M29.1 44.5a4.3 4.3 0 11-8.6 0 4.3 4.3 0 018.6 0M104.2 0a8.8 8.8 0 00-6.9 14.2L85.5 29.9a8.8 8.8 0 00-10 2.5l-13.2-6.2.2-1.6a8.8 8.8 0 10-17 3l-15 10.3a8.8 8.8 0 102.6 3.7L48 31.3a8.7 8.7 0 0012.4-1l13.1 6.1-.1 1.6A8.8 8.8 0 1089 32.6l11.8-15.7c1 .4 2.1.7 3.3.7a8.8 8.8 0 000-17.6"/>
  </g>
</svg>
