<svg xmlns="http://www.w3.org/2000/svg" viewBox="0 0 92 92">
  <g fill="none" fill-rule="evenodd">
    <path fill="#f9f9f9" d="M36.7 53.4v-2.6c1.8.3 4.6.4 9 .4 4.5 0 7.3-.1 9-.4v2.6a62 62 0 01-9 .5 62 62 0 01-9-.5zm18-5.7c-1.3.3-4.5.5-9 .5a62 62 0 01-9-.5v-2.6c1.8.3 4.6.5 9 .5 4.5 0 7.3-.2 9-.5v2.6zm0-8.6v3c-1.3.2-4.5.5-9 .5a62 62 0 01-9-.5v-3c1.8.3 4.6.5 9 .5 4.5 0 7.3-.2 9-.5zm-9-4.5c-12 0-12 1.2-12 2.5v17.3c0 1.2 0 2.5 12 2.5s12-1.3 12-2.5V37.1c0-1.3 0-2.5-12-2.5zM52.3 6.5a6.5 6.5 0 11-13 0 6.5 6.5 0 0113 0M52.3 85a6.5 6.5 0 11-13 0 6.5 6.5 0 0113 0M85 52.3a6.5 6.5 0 110-13 6.5 6.5 0 010 13M6.5 52.3a6.5 6.5 0 110-13 6.5 6.5 0 010 13M78 22.6a6.5 6.5 0 11-9.1-9.2 6.5 6.5 0 019.2 9.2M22.6 78a6.5 6.5 0 11-9.2-9.1 6.5 6.5 0 019.2 9.2M13.4 22.6a6.5 6.5 0 119.2-9.2 6.5 6.5 0 01-9.2 9.2"/>
    <path fill="#f7e4ce" d="M45.7 26.6c-.8 0-1.5-.7-1.5-1.5v-7.6a1.5 1.5 0 113 0v7.6c0 .8-.6 1.5-1.5 1.5M45.7 75.4c-.8 0-1.5-.7-1.5-1.5v-7.6a1.5 1.5 0 013 0V74c0 .8-.6 1.5-1.5 1.5M74 47.2h-7.6a1.5 1.5 0 110-3H74a1.5 1.5 0 110 3M25.1 47.2h-7.5a1.5 1.5 0 110-3h7.5a1.5 1.5 0 010 3M60.4 32.6a1.5 1.5 0 01-1-2.5l5.2-5.4a1.5 1.5 0 112.1 2.2l-5.3 5.3c-.3.3-.6.4-1 .4M25.9 67.1a1.5 1.5 0 01-1.1-2.5l5.3-5.3a1.5 1.5 0 112.1 2L27 66.8c-.3.3-.7.4-1 .4"/>
    <path fill="#f9f9f9" d="M68.9 78A6.5 6.5 0 1178 69a6.5 6.5 0 01-9.2 9.2"/>
    <path fill="#f7e4ce" d="M65.7 67.2c-.4 0-.8-.2-1-.5l-5.4-5.3a1.5 1.5 0 112.1-2l5.3 5.2a1.5 1.5 0 01-1 2.6M31.2 32.7c-.4 0-.8-.2-1-.5L24.7 27a1.5 1.5 0 012.1-2.1l5.3 5.3a1.5 1.5 0 01-1 2.6"/>
  </g>
</svg>
