<svg xmlns="http://www.w3.org/2000/svg" viewBox="0 0 131 109">
  <g fill="none" fill-rule="evenodd">
    <path fill="#c0e4f2" d="M4.5 104.4h122V4.6H4.5v99.8zm124.2 4.6H2.3C1 109 0 108 0 106.7V2.3C0 1 1 0 2.3 0h126.4c1.3 0 2.3 1 2.3 2.3v104.4c0 1.3-1 2.3-2.3 2.3z"/>
    <path fill="#c0e4f2" d="M3 22h126v-5H3zM14 11a3 3 0 11-6 0 3 3 0 016 0M25 11a3 3 0 11-6 0 3 3 0 016 0M35 11a3 3 0 11-6 0 3 3 0 016 0"/>
    <path fill="#1b647e" d="M64.8 57.4h5.7L57.6 75l4.2-13.6H56L62.2 49H71z"/>
    <path fill="#1b647e" d="M84.5 62.5a21 21 0 11-42 0 21 21 0 0142 0zM99 67.7V57.3l-9.6-1.1c-.6-2.7-1.7-5.2-3-7.5l5.9-7.6-7.4-7.4-7.6 6a26.5 26.5 0 00-7.5-3.1L68.7 27H58.3l-1.1 9.6c-2.7.6-5.2 1.7-7.5 3L42 33.8l-7.4 7.4 6 7.6a26.5 26.5 0 00-3.1 7.5L28 57.3v10.4l9.6 1.1c.6 2.7 1.7 5.2 3 7.5L34.8 84l7.4 7.4 7.6-6c2.3 1.4 4.8 2.5 7.5 3.1l1.1 9.6h10.4l1.1-9.6c2.7-.6 5.2-1.7 7.5-3l7.6 5.9 7.4-7.4-6-7.6c1.4-2.3 2.5-4.8 3.1-7.5l9.6-1.1z"/>
  </g>
</svg>
