<svg xmlns="http://www.w3.org/2000/svg" viewBox="0 0 86 96">
  <g fill="none" fill-rule="evenodd">
    <path fill="#f9f9f9" d="M13.96 37.4c-.3.3-.48.62-.54.97-.23.55-2.23 1.8-3.39 1.65a8 8 0 01.47-1.6c.17-.46.33-.92.4-1.36.2-.08.93.07 1.32.15.55.12 1.17.24 1.74.19m28.55 55.54A39.5 39.5 0 013.06 53.49a39.5 39.5 0 0136.37-39.32c.55.88.91 1.73.82 2l-.1.03c-.5.15-1.08.29-1.7.43-3.21.78-5.53 1.44-6.2 2.94-.14.32-.34.76-.38.82-.08.02-.38.01-1.47-.38-.54-.19-.83-.36-1.07-.5-1.13-.65-1.58-.37-3.25.63l-.66.4c-.7.41-1.45.82-2.18 1.22-2.97 1.63-4.4 2.46-4.35 3.72.01.34.16.97 1.03 1.36.55.25 1.08.39 1.56.46-.52.35-1.07.65-1.37.72-.13-.1-.34-.32-.5-.47-.57-.6-1.93-2.01-3.39-.77-.97.84-.93 1.9-.9 2.61.01.57 0 .76-.14.9-.82.82-2.12 2.35-1.66 3.44.13.31.36.55.67.67-.06.26-.2.64-.46.97-.23.02-.77-.09-1.1-.16-1.09-.22-3.11-.64-3.64 1.3-.11.4-.26.8-.41 1.21-.45 1.24-.88 2.42-.34 3.38.2.34.58.77 1.38.93 1.37.28 3.03-.44 4.13-1.2.66-.46 1.47-1.16 1.66-1.98.34-.38 1.98-.84 2.62-.73.7.11 1.2-.17 1.53-.44.37.54.57.91.78 1.3l.44.8a3.06 3.06 0 002.14 1.27c1.19.2 2.38-.1 3.28-.85a5.17 5.17 0 001.4-2.2l.22-.53.08.32c.23.98.77 2.09 2.94 1.81l.1-.01c.94-.12 2.59-.34 3.65-.32-.89.93-2.2 1.8-3.94 1.63-5.4-.5-6.38.38-6.7.67-.24.22-.4.5-.48.8a6.38 6.38 0 01-2.38-.6 6.51 6.51 0 00-6 .35c-.23.14-.54.31-.9.5-2.26 1.21-6.45 3.46-7.99 7.46-1.96 5.1-1.15 9.77 2.13 12.18 2.57 1.9 4.48 1.58 6.32 1.28.7-.11 1.35-.22 2.07-.22 2.3 0 4.51 2.26 4.58 3.32.12 2 1.48 3.22 2.68 4.3.75.66 1.45 1.29 1.9 2.07.36.64.41 1.23.47 1.9.12 1.4.26 2.98 3 4.71 3.57 2.28 4.5 3.23 5.7 4.6 1.35 1.5 2.62 2.05 3.75 2.05 1.19 0 2.22-.6 3.03-1.3 2-1.77 5.18-5.13 3.97-7.78l-.08-.19c-.64-1.4-.64-1.4.22-3.02.26-.48.59-.97.9-1.45 1.07-1.62 2.4-3.63 1.02-5.7-1.85-2.78-2.62-5.19-1.9-5.99 5.85-6.5 5.07-7.85 4.74-8.43a2.19 2.19 0 00-1.44-1.1c-1.06-.24-2.36.24-4.31 1.59-.65.45-1.32.6-1.98.45a2.63 2.63 0 01-1.65-1.26c-.67-1.2-2.8-5.33-3.53-6.74.2.21.43.47.7.8 3.34 4.1 6.26 5.5 8.7 4.15.4-.22 1-.5 1.65-.77 1.83-.8 3.73-1.64 4.47-2.83.66-1.05 1.47-2.59.8-3.69-.27-.43-.85-.93-2.08-.83-.77.07-1.5.24-2.22.4-1.02.24-1.98.46-2.5.2-.68-.34-1.58-1-2.24-1.57.33.04.65.1.91.14.95.17 1.84.32 2.5.23l1.33-.24c1.57-.3 5.25-.98 6.2-.77 1.59.36 4.86 1.95 5.42 2.96 2.48 4.45 3.63 5.11 4.01 5.33.6.34 1.27.3 1.8-.1 1.19-.92 1.26-3.5.85-5-.38-1.37.59-4.73 1.22-5.45.87.2 3.34 2 4.31 2.98.66.65 2.9 2.73 4.15 1.89.41-.28.8-.85.32-2.02-.28-.67-.74-1.51-1.21-2.4-.63-1.18-1.8-3.36-1.76-3.88l.91-2.17a39.2 39.2 0 015.93 20.78 39.5 39.5 0 01-39.45 39.45m-.33-76.13c.26-.83-.03-1.85-.47-2.75l.8-.02c13.26 0 25 6.58 32.16 16.63l-1.43 3.4c-.5 1.18.37 2.92 1.84 5.65.04.1.1.18.14.27l-.15-.15c-.04-.04-4.14-3.87-6.14-3.58-.53.08-1 .43-1.42 1.06-1.03 1.57-1.89 5.16-1.4 6.97.25.9.17 1.97 0 2.53-.59-.57-1.57-1.9-2.9-4.28-1.07-1.94-5.32-3.64-6.75-3.96-1.26-.28-4.04.2-7.02.75-.56.1-1 .19-1.25.22-.34.05-1.18-.1-1.87-.2-1.42-.25-2.66-.46-3.45.01a1.3 1.3 0 00-.64 1.18c.07 1.78 4.12 4.05 4.16 4.07 1.18.59 2.55.27 3.88-.04.64-.15 1.3-.3 1.93-.35h.08c-.07.24-.25.68-.7 1.4-.4.66-2.3 1.49-3.56 2.04-.7.3-1.34.58-1.83.85-1.8 1-4.32-1.44-6.12-3.65-1.43-1.75-2.6-2.8-3.72-2.26-1.09.53-.9 2.09-.7 2.97l.08.24c.12.23 2.98 5.8 3.8 7.27a4.67 4.67 0 002.98 2.26c.85.2 2.17.23 3.6-.76 1.9-1.32 2.55-1.3 2.7-1.27.02 0 .03 0 .05.02-.12.75-1.66 3.08-4.42 6.14-1.87 2.08-.1 5.77 1.72 8.5.57.84.12 1.7-1.02 3.43-.34.52-.7 1.05-1 1.61-1.23 2.31-1.17 2.9-.28 4.84l.08.18c.45.99-.98 3.2-3.46 5.4-1.37 1.2-2.46 1.04-3.9-.57-1.46-1.64-2.54-2.67-6.14-4.96-1.88-1.2-1.95-1.98-2.05-3.17a6.16 6.16 0 00-.74-2.73c-.61-1.07-1.51-1.88-2.3-2.59-1.2-1.08-1.94-1.8-2.01-2.9-.15-2.28-3.38-5.23-6.62-5.23-.89 0-1.7.13-2.4.24-1.68.28-2.9.48-4.78-.9-3-2.2-2.7-6.51-1.43-9.8 1.26-3.3 5.02-5.31 7.04-6.4.4-.2.74-.4 1-.55a4.47 4.47 0 014.1-.23c.52.23 3.14 1.32 4.5.44.37-.25.62-.62.7-1.05.53-.2 2.17-.36 5-.1 2.32.23 4.5-.8 6.17-2.88.7-.88.5-1.56.31-1.9-.65-1.15-2.48-1.06-6.23-.59l-.11.02c-.36.04-.55.02-.63 0a4.8 4.8 0 01-.06-.24c-.12-.52-.33-1.47-1.5-1.86-1.76-.59-2.4 1-2.7 1.76-.2.52-.42 1.06-.8 1.39-.6.5-1.3.46-1.57.42-.48-.07-.75-.26-.8-.33a16.5 16.5 0 01-.4-.7c-.26-.5-.54-1.01-1.12-1.83-.14-.2-.55-.78-1.25-.84-.66-.06-1.08.35-1.33.6l-.15.14a6.61 6.61 0 00-2.88.46c.68-.94 1.1-2.31.69-3.22a1.5 1.5 0 00-.37-.5c.2-.3.5-.7.9-1.1.79-.78.76-1.72.73-2.4-.02-.58 0-.78.16-.96.18.12.46.4.64.6.45.47.93.95 1.57 1.07 1.54.3 4.39-1.96 4.83-2.85a1.2 1.2 0 00-.02-1.18c-.36-.6-1.01-.62-1.64-.64-.41-.02-.93-.03-1.48-.17.7-.5 1.92-1.16 2.8-1.65.76-.4 1.54-.83 2.25-1.26l.68-.4c.47-.28.89-.54 1.1-.64.03 0 .05.02.07.03.28.16.7.4 1.4.66 2.75.98 3.51.47 4.4-1.54.32-.7 3.36-1.43 4.82-1.78.65-.16 1.26-.3 1.78-.45.73-.21 1.25-.7 1.47-1.36m.33-5.84A42.56 42.56 0 000 53.5 42.56 42.56 0 0042.51 96 42.56 42.56 0 0085.03 53.5 42.56 42.56 0 0042.5 10.97"/>
    <path fill="#f9f9f9" d="M56.76 73.27c.2.85.52 2.29.2 2.57-.33.28-.55.21-.68.14-.32-.19-.58-.7-.47-1.32a5.5 5.5 0 00-.57-3.34c-.22-.53-.44-1.03-.5-1.57-.08-.84.34-2.3 1.09-3.14.33-.36.67-.55 1-.55.2.01.59.02.7.2.28.47-.1 1.97-.81 3.26-.57 1.03-.26 2.41.04 3.75m2.52-8.05c-.32-.55-1-1.2-2.42-1.2h-.04c-.92 0-1.79.43-2.51 1.23a6.82 6.82 0 00-1.6 4.7c.1.85.39 1.55.65 2.17.32.77.58 1.38.44 2.18a3.27 3.27 0 001.47 3.45c.39.22.81.33 1.24.33.62 0 1.24-.23 1.77-.69 1.27-1.09.85-2.94.48-4.57-.18-.78-.45-1.96-.26-2.3.45-.8 1.82-3.56.78-5.3"/>
    <path fill="#f7e4ce" d="M54.74 11.61a4.54 4.54 0 110-9.08 4.54 4.54 0 010 9.08m0-11.61a7 7 0 00-7 7c0 5.31 7 12.73 7 12.73s7-8.26 7-12.73a7 7 0 00-7-7M40.08 28.11a4.54 4.54 0 110-9.08 4.54 4.54 0 010 9.08m0-11.61a7 7 0 00-7 7c0 5.31 7 12.73 7 12.73s7-8.26 7-12.73a7 7 0 00-7-7M19 53.25a4.54 4.54 0 110-9.08 4.54 4.54 0 010 9.08m0-11.61a7 7 0 00-7 7c0 5.31 7 12.73 7 12.73s7-8.26 7-12.73a7 7 0 00-7-7M41 72.64a4.54 4.54 0 110-9.08 4.54 4.54 0 010 9.08m0-11.62a7 7 0 00-7 7c0 5.32 7 12.74 7 12.74s7-8.27 7-12.74a7 7 0 00-7-7"/>
  </g>
</svg>
