<svg xmlns="http://www.w3.org/2000/svg" id="AW" viewBox="0 0 1080 1080">
  <defs/>
  <path fill="#f9f9f9" d="M359.16 822.49A68.47 68.47 0 00292 766.81q-3 0-5.89.26V556.71h81.47v-32H254.09v253.57a68.52 68.52 0 00-7.09 5.42 53.42 53.42 0 00-7.38-.52 52.09 52.09 0 00-49.79 37 60.18 60.18 0 0010.95 119.35h138.61a60.19 60.19 0 0019.77-117zm-19.77 85H200.78a28.18 28.18 0 010-56.35c.52 0 1.1 0 1.83.07l7.17.46v-.43a38.62 38.62 0 0151.72-36.34l2.72-3.22A36.35 36.35 0 01328.34 835V849.79l14.23 1.58a28.17 28.17 0 01-3.17 56.17zM899.6 822.49a68.49 68.49 0 00-64.6-55.62V524.71H713v32h90v216.77a68.57 68.57 0 00-15.54 10.22 53.2 53.2 0 00-7.38-.52 52.08 52.08 0 00-49.78 37 60.18 60.18 0 0011 119.35h138.53a60.19 60.19 0 0019.77-117zm-19.77 85H741.22a28.18 28.18 0 110-56.35c.51 0 1.09 0 1.82.07l7.18.46v-.43a38.62 38.62 0 0151.72-36.34l2.72-3.22A36.35 36.35 0 01868.78 835V849.79l14.22 1.56a28.17 28.17 0 01-3.17 56.17zM629.08 196.16a68.37 68.37 0 00-112.17-38.79 53.31 53.31 0 00-7.38-.52 52.08 52.08 0 00-49.78 37 60.18 60.18 0 0010.95 119.34H524v51.29h32v-51.29h53.3a60.19 60.19 0 0019.78-117zm-19.78 85H470.7a28.18 28.18 0 110-56.35c.51 0 1.09 0 1.82.07l7.18.46v-.43a38.65 38.65 0 0151.73-36.34l2.72-3.22a36.35 36.35 0 0164.12 23.27v14.79l14.21 1.59a28.17 28.17 0 01-3.18 56.16z"/>
  <path fill="#f7e4ce" d="M540 356.09c-101.41 0-183.91 82.5-183.91 183.91S438.59 723.91 540 723.91 723.91 641.41 723.91 540 641.41 356.09 540 356.09zm-10 80.79a314.73 314.73 0 01-48.5-5.21c12.4-28.88 29.51-48.92 48.5-54.2zm0 20v70.79h-68.47c1.05-28 5.68-54.34 12.89-76.93a330.58 330.58 0 0055.58 6.15zm0 90.79v70.79a331.17 331.17 0 00-56.9 6.5c-6.84-22.87-11.06-49.29-11.71-77.29zm0 90.8v64c-19.93-5.47-37.78-27.26-50.29-58.47a312.24 312.24 0 0150.29-5.52zm20 0a312.24 312.24 0 0150.29 5.53c-12.51 31.2-30.36 53-50.29 58.52zm0-20v-70.79h68.61c-.65 28-4.87 54.42-11.71 77.29a331.17 331.17 0 00-56.9-6.5zm0-90.79v-70.79a330.58 330.58 0 0055.58-6.14c7.21 22.59 11.84 48.9 12.89 76.93zm0-90.8v-59.41c19 5.28 36.1 25.32 48.5 54.2a314.73 314.73 0 01-48.5 5.21zm61.63-24.4A148 148 0 00594 385.25 164 164 0 01648.16 417a219.78 219.78 0 01-29.81 10.2q-3.14-7.67-6.72-14.72zm-143.26 0q-3.58 7-6.72 14.67A219.78 219.78 0 01431.84 417 164 164 0 01486 385.25a147 147 0 00-17.63 27.23zm-13.56 33.62c-7.72 24.62-12.29 52.45-13.3 81.58h-65a163.23 163.23 0 0140.2-95.61 229.71 229.71 0 0038.1 14.03zm-13.43 101.58c.63 29.16 4.81 57.13 12.15 82a226.37 226.37 0 00-39.58 15 163.18 163.18 0 01-37.68-97zm18.58 101a202.37 202.37 0 008.41 18.88A147 147 0 00486 694.75a164.16 164.16 0 01-57.59-34.82A213.4 213.4 0 01460 648.64zm151.67 18.88a202.37 202.37 0 008.37-18.92 214.55 214.55 0 0131.57 11.29A164.16 164.16 0 01594 694.75a147.48 147.48 0 0017.63-27.23zm14.84-37.82c7.34-24.89 11.52-52.86 12.15-82h65.11a163.18 163.18 0 01-37.68 97 226.37 226.37 0 00-39.58-15.04zm12-102c-1-29.13-5.58-57-13.3-81.58a229.71 229.71 0 0038.06-14 163.23 163.23 0 0140.2 95.61z"/>
</svg>