<svg xmlns="http://www.w3.org/2000/svg" viewBox="0 0 76 93">
  <g fill="none" fill-rule="evenodd">
    <path fill="#f7e4ce" d="M27.3 0H5a5 5 0 00-5 5v51.2a5 5 0 005 5.1h11.2v-3H5a2 2 0 01-2-2V5C3 3.9 4 3 5 3h22.3c1.2 0 2 1 2 2v33h3V5a5 5 0 00-5-5"/>
    <path fill="#f7e4ce" d="M5.7 17.1h21v-3h-21zM5.7 26h9v-3h-9zM5.7 35h11.8v-3H5.7zM5.7 44h16.5v-3H5.7zM5.7 51.7h21v-3h-21zM18 6.2a1.9 1.9 0 10-3.7 0 1.9 1.9 0 003.8 0"/>
    <path fill="#f9f9f9" d="M41.4 73c-.3-.6-.9-1.3-1.2-1.5-.9-.3-1.5-.3-2.4-.3-1.6 0-3.4 0-6.5-1.4-6.7-3.2-17.4-10-18.8-11-3.1-2.2-3.2-4.7-2.2-6.3 1.4-2.2 5.3-3.4 8.4-1.7l1.2.6c4 2.4 6.4 3.7 7.4 4l-.2-.6C26 53 14.6 29 14.6 29a6.3 6.3 0 01-.4-4.5c.3-1.1 1.2-2 2.3-2.6 3.4-1.6 6.1.8 7 2.7L30 37.1c3.9-1.3 15.7-5.3 17.4-5.7 4-1 6.4 2.6 6.5 2.8v.1l8.5 17.5c1 2.2 0 5.5-.7 6.9 0 .6.6 2.2 1.3 3.6l-2.6 1.4c-2.5-4.7-1.7-6-1.4-6.4.5-.8 1-3.2.6-4.3l-8.3-17.3c-.2-.3-1.4-1.8-3.2-1.4l-18.4 6c-.7.3-1.5 0-1.8-.7l-7-13.6c-.3-.5-1.3-2.2-3-1.4-.6.3-.8.6-.9.9-.2.7.2 1.8.3 2.1l12.5 26c.4.9.8 2 .4 3s-1.5 1.5-2.2 1.8c-.9.4-1.6.3-9.7-4.4l-1-.6c-1.7-1-3.8-.2-4.4.7-.5.8.6 1.7 1.3 2.2C15.6 57.3 26 64 32.6 67c2.4 1.2 3.8 1.1 5 1.1 1.2 0 2.3 0 3.7.5 1.6.7 2.6 2.6 2.8 3L41.4 73z"/>
    <path fill="#f7e4ce" d="M45.2 83.6c-.6 0-1.1-.3-1.4-.8l-5-10.2L64 60.3l5 10.2a1.5 1.5 0 11-2.7 1.3l-3.7-7.5L43 74l3.6 7.6a1.5 1.5 0 01-1.3 2.1"/>
    <path fill="#f9f9f9" d="M46 92.6l-4.7-9.8 29.1-14.2 4.7 9.9-2.7 1.3-3.4-7.2-23.7 11.6 3.4 7.1z"/>
  </g>
</svg>
