<svg xmlns="http://www.w3.org/2000/svg" viewBox="0 0 99 82">
    <g fill="none" fill-rule="evenodd">
        <path fill="#f7e4ce"
              d="M44.2 9.8a6.8 6.8 0 1113.7 0 6.8 6.8 0 01-13.7 0m11.6 8.5a9.8 9.8 0 10-9.6 0c-5.7.3-10.3 5-10.3 10.8v5.7a1.5 1.5 0 103 0V29c0-4.3 3.5-7.8 7.8-7.8h8.7c4.3 0 7.8 3.5 7.8 7.8v5.7a1.5 1.5 0 103 0V29c0-5.8-4.6-10.5-10.4-10.8"/>
        <path fill="#f9f9f9"
              d="M93.7 51.2l-18 13.4c-1 .8-4 3-6 3.4A662.5 662.5 0 0153.4 71c-3 .6-4.9.6-6.2.1L43.4 69c-4-2.5-7.1-4.3-8.8-4.7-2-.4-5.3 1.2-7.6 2.6V52.6c2.8-1.7 8.7-5 11.5-5.4 3.8-.4 7.7.5 11.4 2.8 4.2 2.7 7.5 3.6 12 3.3l2-.2c3.7-.3 6.3-.4 6.8 1.4.2.7.2 1.4-.2 2.1-.7 1.2-2.2 2-4.3 2.6-4.2 1-10.3 2-12.3 1.7-3-.3-7-1.1-8.5-2L44 61.3a30.3 30.3 0 0010.7 2.5c3 0 8.8-1 12.3-1.8a9.8 9.8 0 005.8-3.4l17.2-11.8c.1-.1 2.8-2 4.3-.3.7.8 1 1.5 1 2.2-.2 1.1-1.2 2.1-1.5 2.4zM16.7 74H24V50.8h-7.4V74zm54-32.9c.5-.3 1.8 0 2.6.6 1 .8 1 2.2.8 3a3857 3857 0 01-5.7 5.3 28 28 0 00-4.8.1l-1.9.2h-.9c4.3-4 9.3-8.7 10-9.2zm11 .5a4 4 0 012.5-.9c.7 0 1.3.3 1.8.9 1.7 1.9-.9 4.8-1 4.9h.1l-11.4 7.8-.1-.7c-.4-1.2-1-2-1.9-2.6l10-9.4zm14.8 3c-2-2.3-5-1.8-7-1a5.4 5.4 0 00-5.3-6c-2 0-3.7 1-4.7 2L77 42a5 5 0 00-1.7-2.6c-1.7-1.4-4.5-2-6.3-.6L57 49.9c-1.8-.4-3.4-1.2-5.4-2.4a20.3 20.3 0 00-13.3-3.2c-3 .3-8.2 3.1-11.2 4.8v-1.3H0v3h13.6v27.7H0v3h16.6V77H27v-6.6c2.7-1.8 6-3.3 7-3.1 1.3.2 5.2 2.7 7.8 4.3L46 74c1 .4 2.1.6 3.4.6 1.3 0 2.7-.2 4.5-.5a1143.1 1143.1 0 0116.5-3.2 22 22 0 007-4l18.1-13.3c.3-.2 2.4-2 2.6-4.5.1-1.1-.1-2.8-1.6-4.5zM58.4 29.8l-2.7 2.9a.4.4 0 01-.7 0l-2.7-2.9a1.9 1.9 0 113-2.2l.4-.5a1.9 1.9 0 012.7 2.7m-3-6a5.5 5.5 0 100 11 5.5 5.5 0 000-11"/>
    </g>
</svg>
