<svg xmlns="http://www.w3.org/2000/svg" viewBox="0 0 66 74">
  <g fill="none" fill-rule="evenodd">
    <path fill="#f9f9f9" d="M32.6 0H5.79A5.78 5.78 0 000 5.78v61.67c0 3.18 2.6 5.77 5.78 5.77H32.6c3.18 0 5.77-2.59 5.77-5.77v-4.32h-3v4.32a2.78 2.78 0 01-2.77 2.77H5.78A2.78 2.78 0 013 67.45V5.78A2.78 2.78 0 015.78 3H32.6a2.78 2.78 0 012.77 2.78v34h3v-34C38.38 2.59 35.8 0 32.61 0"/>
    <path fill="#f9f9f9" d="M5.3 20.02h27.79v-3H5.29zM5.3 30.79h27.79v-3H5.29zM5.3 41.55h27.79v-3H5.29zM5.3 52.31h27.79v-3H5.29zM5.3 61.7h27.79v-3H5.29zM21.5 7.74a2.3 2.3 0 10-4.6 0 2.3 2.3 0 004.6 0M54.77 47.29l-1.9-1.92a.44.44 0 00-.64 0l-5.99 6.11-2.54-2.54a.44.44 0 00-.64 0l-1.91 1.9a.45.45 0 000 .64l4.77 4.77c.18.18.46.18.64 0l1.9-1.9 6.31-6.43a.44.44 0 000-.63"/>
    <path fill="#f7e4ce" d="M47.96 36.75a14.37 14.37 0 00-14.35 14.36c0 7.91 6.44 14.35 14.35 14.35 7.92 0 14.36-6.44 14.36-14.35 0-7.92-6.44-14.36-14.36-14.36m0 31.71a17.37 17.37 0 01-17.35-17.35c0-9.57 7.78-17.36 17.35-17.36s17.36 7.79 17.36 17.36-7.79 17.35-17.36 17.35"/>
  </g>
</svg>
