<svg xmlns="http://www.w3.org/2000/svg" viewBox="0 0 92 92">
    <g fill="none" fill-rule="evenodd">
        <path fill="#f9f9f9" d="M52.255 6.51a6.51 6.51 0 11-13.02-.001 6.51 6.51 0 0113.02.001M52.255 84.98a6.51 6.51 0 11-13.02-.001 6.51 6.51 0 0113.02 0"/>
        <path fill="#f7e4ce" d="M45.745 26.561a1.5 1.5 0 01-1.5-1.5v-7.513a1.5 1.5 0 113 0v7.513a1.5 1.5 0 01-1.5 1.5M45.745 75.36a1.5 1.5 0 01-1.5-1.5v-7.514a1.5 1.5 0 113 0v7.514a1.5 1.5 0 01-1.5 1.5"/>
        <path fill="#f9f9f9" d="M84.98 52.255a6.51 6.51 0 110-13.02 6.51 6.51 0 010 13.02M6.51 52.255a6.51 6.51 0 11.001-13.02 6.51 6.51 0 01-.001 13.02"/>
        <path fill="#f7e4ce" d="M73.942 47.244h-7.514a1.5 1.5 0 110-3h7.514a1.5 1.5 0 110 3M25.144 47.244H17.63a1.5 1.5 0 110-3h7.513a1.5 1.5 0 110 3"/>
        <path fill="#f9f9f9" d="M78.092 22.605a6.511 6.511 0 11-9.207-9.209 6.511 6.511 0 019.207 9.21M22.605 78.091a6.51 6.51 0 11-9.207-9.206 6.51 6.51 0 019.207 9.206"/>
        <path fill="#f7e4ce" d="M60.37 32.62a1.502 1.502 0 01-1.061-2.561l5.313-5.313a1.5 1.5 0 012.122 2.121l-5.313 5.313a1.495 1.495 0 01-1.06.44M25.865 67.125a1.502 1.502 0 01-1.061-2.561l5.313-5.313a1.5 1.5 0 012.122 2.121l-5.313 5.314a1.495 1.495 0 01-1.061.44"/>
        <path fill="#f9f9f9" d="M68.885 78.091a6.51 6.51 0 119.206-9.206 6.51 6.51 0 01-9.206 9.206M13.398 22.605a6.511 6.511 0 119.21-9.207 6.511 6.511 0 01-9.21 9.207"/>
        <path fill="#f7e4ce" d="M65.683 67.183c-.384 0-.768-.146-1.06-.44l-5.314-5.312a1.501 1.501 0 012.122-2.121l5.313 5.312a1.502 1.502 0 01-1.06 2.56M31.178 32.678c-.384 0-.768-.146-1.061-.439l-5.313-5.313a1.502 1.502 0 010-2.122 1.502 1.502 0 012.122 0l5.313 5.313a1.502 1.502 0 01-1.061 2.561"/>
        <path fill="#f9f9f9" d="M52.11 47.028l-5.636 6.01a.935.935 0 01-1.375 0l-5.637-6.01a3.984 3.984 0 010-5.63 3.984 3.984 0 015.63 0c.278.285.512.599.695.936.182-.337.416-.651.694-.936a3.984 3.984 0 015.63 0 3.984 3.984 0 010 5.63M45.745 29.59c-8.877 0-16.073 7.196-16.073 16.073s7.196 16.073 16.073 16.073 16.074-7.196 16.074-16.073S54.622 29.59 45.745 29.59"/>
    </g>
</svg>
