<svg xmlns="http://www.w3.org/2000/svg" id="AW" x="0" y="0" version="1.1" viewBox="0 0 1080 1080" xml:space="preserve">
  <path d="M884 141a56 56 0 00-28.7 104l-21.6 84.5a55.9 55.9 0 00-35.5 14.6l-64.1-38.6a56 56 0 10-103.4 12.6l-50.3 50.4a241.8 241.8 0 0122.7 22.7l50.4-50.4a55.9 55.9 0 0064.3-7.9l64.1 38.6a55.9 55.9 0 10108.4 28c6.2-24-4.1-49.3-25.4-62.1l21.5-84.5A56 56 0 10884 141zM687 314.5c-2.3.7-4.7 1.1-7.1 1.1h-1.3a24 24 0 01-22.6-22.7v-1.3a24 24 0 0147.5-4.6 24.1 24.1 0 01-16.5 27.5zm148.9 95a24 24 0 01-24-24 24 24 0 1148 0 24 24 0 01-24 24zm59.2-191.3A24 24 0 11884 173a24 24 0 0111.1 45.2zM478.1 558.8l.3-5.7a60 60 0 00-7.8-29.6l65.7-65.7 22.7-22.7a171.5 171.5 0 00-22.6-22.6l-22.7 22.7-65.7 65.7a60.1 60.1 0 1018.7 87.8l86.9 33.2 30.1 11.5c4.7-9.6 8.5-19.6 11.4-29.9l-30-11.5-87-33.2zM857.7 664.7a56 56 0 00-44.4 21.9L683.1 637l-30-11.4a230 230 0 01-11.4 29.9l30 11.4 130.1 49.7a56 56 0 1055.9-51.9zm0 80a24 24 0 01-8.6-46.4 24 24 0 118.6 46.4z" fill="#f9f9f9"/>
  <path d="M783.5 835.1L651.8 703.5a286.8 286.8 0 0031.3-66.4A278.1 278.1 0 00603 346a277.6 277.6 0 10-48.7 449.5L688.8 930a45.7 45.7 0 0064.6 0l30-30a46 46 0 00.1-64.9zm-252.8-63.5a245.6 245.6 0 1172.4-380.4 243.5 243.5 0 0161 162 244.2 244.2 0 01-54 153.8 251.5 251.5 0 01-51 47.8 278.7 278.7 0 01-28.4 16.8zm230.1 105.5l-30 30c-5.3 5.3-14 5.3-19.3 0L581.9 777.5a282.8 282.8 0 0050.8-47.9l128.2 128.2c5.3 5.3 5.3 14-.1 19.3z" fill="#f7e4ce"/>
  <path d="M559 435.1a171.5 171.5 0 00-22.6-22.6 183.7 183.7 0 1022.6 22.6zm-5.4 186.7a151.7 151.7 0 11-270.5-137.3 151.7 151.7 0 01270.5 137.3zm5.4-186.7a171.5 171.5 0 00-22.6-22.6 183.7 183.7 0 1022.6 22.6zm-5.4 186.7a151.7 151.7 0 11-270.5-137.3 151.7 151.7 0 01270.5 137.3zm5.4-186.7a171.5 171.5 0 00-22.6-22.6 183.7 183.7 0 1022.6 22.6zm-5.4 186.7a151.7 151.7 0 11-270.5-137.3 151.7 151.7 0 01270.5 137.3z" fill="#f7e4ce"/>
</svg>
