<svg xmlns="http://www.w3.org/2000/svg" viewBox="0 0 99 109">
  <g fill="none" fill-rule="evenodd">
    <path fill="#c0e4f2" d="M92.7 26.8c-1.6.8-3.8 1.3-6 1.3-4.8 0-8-2-8-3.4v-2.2a18 18 0 008 1.7c2.8 0 5.6-.6 7.8-1.7v2.2c0 .7-.7 1.4-1.8 2zM80.5 5.6c1.6-.8 3.8-1.3 6.1-1.3 4.8 0 8 2 8 3.3 0 .7-.8 1.4-1.9 2-1.6.9-3.8 1.4-6 1.4-4.8 0-8-2-8-3.4 0-.6.7-1.3 1.8-2zm-1.8 8a18 18 0 008 1.7c2.8 0 5.6-.6 7.8-1.7v3c0 .5-.7 1.3-1.8 2-1.6.8-3.8 1.2-6 1.2-4.8 0-8-2-8-3.3v-2.9zM99 7.9v-.3c0-2.2-1.5-4.3-4.1-5.7A17.7 17.7 0 0086.6 0c-3 0-6 .7-8.3 1.9-2.6 1.4-4 3.5-4 5.7v17.1c0 2.3 1.4 4.4 4 5.8 1.8 1 4 1.6 6.2 1.8v7.4H67l3 4.3h19V32.3c2.2-.3 4.2-.9 5.9-1.8 2.6-1.4 4.1-3.5 4.1-5.8V8zM4.5 24.7v-2.2a18 18 0 007.9 1.7c2.9 0 5.7-.6 7.9-1.7v2.2c0 .7-.7 1.4-1.8 2-1.6.9-3.8 1.4-6.1 1.4-4.8 0-8-2-8-3.4zm1.8-19c1.6-.9 3.8-1.4 6-1.4 4.8 0 8 2 8 3.3 0 .7-.7 1.4-1.8 2-1.6.9-3.8 1.4-6.1 1.4-4.8 0-8-2-8-3.4 0-.6.8-1.3 1.9-2zm-1.8 7.9a18 18 0 007.9 1.7c2.9 0 5.7-.6 7.9-1.7v3c0 .5-.7 1.3-1.8 2-1.6.8-3.8 1.2-6.1 1.2-4.8 0-8-2-8-3.3v-2.9zm10.1 18.7c2.3-.3 4.3-.9 6-1.8 2.7-1.4 4.1-3.5 4.1-5.8v-17c0-2.3-1.4-4.4-4-5.8A17.7 17.7 0 0012.3 0C9.3 0 6.4.7 4 1.9 1.5 3.3 0 5.4 0 7.6v17.1c0 2.3 1.5 4.4 4.1 5.8 1.7 1 3.8 1.5 6 1.8V44h18.1l1.8-4.3H14.6v-7.4zM20.3 84c0 .5-.7 1.3-1.8 2-1.6.8-3.8 1.3-6.1 1.3-4.8 0-8-2-8-3.4 0-.6.8-1.4 1.9-2 1.6-.9 3.8-1.4 6-1.4 4.8 0 8 2 8 3.4zm-1.8 19.3c-1.6.8-3.8 1.3-6.1 1.3-4.8 0-8-2-8-3.4V99c2.3 1.1 5 1.7 8 1.7 2.9 0 5.7-.6 7.9-1.7v2.3c0 .7-.7 1.5-1.8 2zM20.3 90v2.9c0 .6-.7 1.4-1.8 2-1.6.9-3.8 1.4-6.1 1.4-4.8 0-8-2-8-3.4v-3c2.3 1.2 5 1.8 8 1.8 2.9 0 5.7-.6 7.9-1.7zM10 76.3c-2.2.2-4.3.8-6 1.8C1.5 79.5 0 81.6 0 83.9v17.3c0 2.3 1.5 4.5 4.1 5.9 2.3 1.2 5.2 1.9 8.3 1.9 3 0 6-.7 8.2-2 2.7-1.3 4.1-3.5 4.1-5.8V84c0-2.3-1.4-4.4-4-5.8-1.8-1-3.8-1.6-6-1.8v-9H30L27.2 63h-17v13.3zM92.7 86a13 13 0 01-6 1.3c-4.7 0-7.9-2-7.9-3.4 0-.6.7-1.4 1.8-2a13 13 0 016-1.4c4.8 0 8 2 8 3.4 0 .6-.7 1.4-1.9 2m0 9a13 13 0 01-6 1.4c-4.7 0-7.9-2-7.9-3.4v-3c2.2 1.2 5 1.8 7.9 1.8 2.9 0 5.7-.6 7.9-1.8v3c0 .6-.7 1.4-1.9 2m0 8.4a13 13 0 01-6 1.3c-4.7 0-7.9-2-7.9-3.4V99c2.2 1.1 5 1.7 7.9 1.7 2.9 0 5.7-.6 7.9-1.7v2.3c0 .7-.7 1.5-1.9 2M95 78.2c-1.7-1-3.7-1.6-6-1.8V63H70l-2 4.4h16.5v8.9c-2.3.2-4.3.8-6 1.8-2.6 1.4-4.1 3.5-4.1 5.8v17.3c0 2.3 1.5 4.5 4 5.9 2.3 1.2 5.2 1.9 8.3 1.9 3 0 6-.7 8.2-2 2.6-1.3 4.1-3.5 4.1-5.8V84c0-2.3-1.5-4.4-4-5.8"/>
    <path fill="#1b647e" d="M62.4 53.3c-.1-4-.8-7.7-1.8-11 1.8-.6 3.6-1.2 5.2-2 3 3.6 5 8 5.4 13h-8.8zm-1.6 13.9A43 43 0 0062.4 56h8.9C71 61 69 65.6 66 69.2c-1.6-.8-3.4-1.5-5.3-2zm-2 5.1l1-2.5c1.6.4 3 1 4.4 1.5-2.3 2-5 3.7-7.9 4.7a20 20 0 002.4-3.7zM38 69.8a27.6 27.6 0 003.6 6.2c-3-1-5.6-2.6-7.9-4.7a29 29 0 014.3-1.5zM35.6 56c0 4 .6 7.8 1.6 11.2-1.9.5-3.7 1.2-5.3 2-3-3.6-5-8.2-5.2-13.2h8.9zm1.8-13.8c-1 3.4-1.7 7.2-1.8 11.1h-8.8c.4-5 2.4-9.4 5.4-13 1.6.8 3.4 1.4 5.2 2zm1.9-4.5a27 27 0 00-1 2 30 30 0 01-4-1.4c2.1-1.9 4.6-3.4 7.4-4.3a20 20 0 00-2.4 3.7zm19.4 0a20 20 0 00-2.4-3.7c2.8 1 5.3 2.4 7.4 4.3a30 30 0 01-4 1.4l-1-2zM50.4 41v-8c2.5.6 4.9 3.3 6.6 7.3-2.2.4-4.4.6-6.6.7zm0 12.3v-9.6a45 45 0 007.5-.8c1 3 1.6 6.6 1.8 10.4h-9.3zm0 12.4V56h9.3c-.1 3.8-.7 7.4-1.6 10.6a45 45 0 00-7.7-1zm0 2.7c2.3 0 4.6.3 6.8.7-1.7 4.3-4.1 7.2-6.8 8v-8.7zm-2.8 0V77c-2.7-.8-5.1-3.7-6.8-8 2.2-.4 4.5-.6 6.8-.7zm0-12.4v9.7a45 45 0 00-7.7.9c-1-3.2-1.5-6.8-1.6-10.6h9.3zm0-12.3v9.6h-9.3c.2-3.8.8-7.4 1.8-10.4 2.4.4 5 .7 7.5.8zm0-2.7c-2.2 0-4.4-.3-6.6-.7 1.7-4 4-6.7 6.6-7.4v8zM49 30a25 25 0 100 50 25 25 0 000-50z"/>
  </g>
</svg>
