<svg xmlns="http://www.w3.org/2000/svg" id="AW" viewBox="0 0 1080 1080">
  <path fill="#f7e4ce" d="M490.7 537.9a21.5 21.5 0 01-9.8-2.4 19 19 0 01-9.7-23.3l54.7-171h-73L553.2 146H734l-68.7 90.3h63L507 530.2a20.8 20.8 0 01-16.2 7.7zm78.7-227.5l-46.9 146.4 143-190h-63.4l68.7-90.3h-97.5l-68.7 134z"/>
  <path fill="#f9f9f9" d="M459.2 622a118.7 118.7 0 00-43.7-92.2l-32.1-26.2c-40.7-77.7-81.5-123.3-121.3-135.4 9.8-34.5 24.4-85.7 29.4-101.1a116.5 116.5 0 005-48 40.3 40.3 0 00-33.6-35.8 40.8 40.8 0 00-44.1 22.9l-47.3 100a173.8 173.8 0 00-16.6 73.8v139.4a172.4 172.4 0 0028.1 94.4l92.5 141.8h-20v81h-33.7V940h31.7v-71.9H463V940h31.6V755.6h-35.5zm-249.8-25.4a140.9 140.9 0 01-22.9-77.2V380a142.2 142.2 0 0113.6-60.4l47.2-100a9.3 9.3 0 0110.3-5.2 8.6 8.6 0 017.5 7.9 85.1 85.1 0 01-3.7 35c-6.2 19.2-26 89-34.7 120.1l-.5.5A34.1 34.1 0 00220 414l73.1 177.5 29.2-12L249.2 402a2.6 2.6 0 01-.1-2l3.8 1 .6-2.4c18.4 6 55.3 29.8 103.3 122.4a15.7 15.7 0 004 5l34.6 28.3a87.2 87.2 0 0132.2 67.7v133.6H313.2zm253.6 240H287.1v-49.4h176zM908.5 306.1l-47.3-100a40.8 40.8 0 00-44.1-22.9 40.3 40.3 0 00-33.7 35.8 116.4 116.4 0 005.1 48c5 15.4 19.6 66.7 29.4 101.1-39.8 12.2-80.6 57.7-121.3 135.4l-32 26.2a118.6 118.6 0 00-43.8 92.3v133.6h-35.5V940H617v-71.9h209.5V940h31.7V836.5h-33.7v-81h-20L897 613.9a172.5 172.5 0 0028-94.4V380a173.8 173.8 0 00-16.5-73.9zM617 836.5v-49.3h175.9v49.3zm276.5-317.1a141 141 0 01-23 77.2l-103.7 159H652.4V622a87.2 87.2 0 0132.1-67.8l34.6-28.2a15.7 15.7 0 004-5c48-92.7 85-116.5 103.3-122.4l.7 2.4 3.8-1a2.6 2.6 0 01-.1 2l-73.1 177.4 29.2 12L860 414a34.1 34.1 0 00-6.2-36.2l-.5-.4c-8.7-31-28.5-100.9-34.7-120.1a84.9 84.9 0 01-3.7-35 8.6 8.6 0 017.5-8 9.3 9.3 0 0110.3 5.3l47.2 100a142.2 142.2 0 0113.6 60.4z"/>
</svg>
