<svg xmlns="http://www.w3.org/2000/svg" viewBox="0 0 74 76">
  <g fill="none" fill-rule="evenodd">
    <path fill="#f9f9f9" d="M12.5 66h16.7v-4.6H12.5v4.7zM5.2 43.4A13.4 13.4 0 013 36V22.8c0-2 .4-4 1.3-5.8l4.5-9.4c.2-.6.8-.6 1-.5.1 0 .6.1.7.7a8 8 0 01-.4 3.3L6.8 22.5c-.9 1-1.1 2.3-.6 3.5l7 16.8 2.7-1.1-7-16.8v-.2h.4v-.2c1.8.6 5.3 2.9 9.9 11.6 0 .2.2.4.3.5l3.3 2.7c2 1.6 3 4 3 6.4v12.7H15l-9.8-15zm23.7 2.4c0-3.4-1.5-6.6-4.2-8.7l-3-2.5c-3.9-7.4-7.8-11.7-11.5-12.9L13 12c.4-1.4.6-3 .4-4.5A3.8 3.8 0 0010.3 4c-1.8-.3-3.5.6-4.2 2.2l-4.5 9.5c-1 2.1-1.6 4.6-1.6 7V36c0 3.2 1 6.3 2.7 9l8.7 13.4H9.5v7.7H6.4v9.8h3v-6.8h19.8v6.8h3V58.4H29V45.7zM70 36c0 2.6-.7 5.1-2 7.3L58 58.4H47.3V45.7c0-2.5 1.1-4.8 3-6.4l3.3-2.7.4-.5c4.6-8.7 8-11 9.8-11.6v.3l.4-.1v.2l-7 16.8 2.9 1.1L67 26c.4-1.2.2-2.5-.7-3.4L63 11a8 8 0 01-.4-3.3c0-.6.5-.7.7-.7.2 0 .7-.1 1 .5l4.5 9.4c.8 1.8 1.3 3.8 1.3 5.8V36zM43.9 66h16.7v-4.6H43.8v4.7zm27.7-50.2L67 6.3A3.9 3.9 0 0062.8 4c-1.7.3-3 1.7-3.2 3.4-.1 1.5 0 3 .5 4.5l2.8 9.6c-3.8 1.2-7.6 5.5-11.5 12.9l-3 2.5a11.3 11.3 0 00-4.2 8.7v12.7h-3.4V76h3v-6.8h20v6.8h3v-9.8h-3.3v-7.7h-1.9L70.4 45c1.8-2.7 2.7-5.8 2.7-9V22.8c0-2.4-.6-4.9-1.6-7z"/>
    <path fill="#f7e4ce" d="M24.8 23.7v-4.1c2 .4 5.6.6 11.7.6s9.7-.2 11.8-.6v4.1c-1.5.3-5.7.7-11.8.7-6 0-10.2-.4-11.8-.7zm23.5-7.2c-1.5.4-5.7.7-11.8.7-6 0-10.2-.3-11.8-.7v-4c2.2.3 5.7.6 11.8.6 6.1 0 9.7-.3 11.8-.7v4.1zm0-11.6v4.5c-1.5.3-5.7.7-11.8.7-6 0-10.2-.4-11.8-.7V4.9c2.2.3 5.7.6 11.8.6 6.1 0 9.7-.3 11.8-.6zM36.5 0C21.7 0 21.7 1.5 21.7 2.8v21.9c0 1.2 0 2.7 14.8 2.7s14.8-1.5 14.8-2.7V2.8c0-1.3 0-2.8-14.8-2.8z"/>
  </g>
</svg>